<svg width="395" height="395" viewBox="0 0 395 395" fill="none" xmlns="http://www.w3.org/2000/svg">
<path d="M395 197.5C395 306.576 306.576 395 197.5 395C88.4238 395 0 306.576 0 197.5C0 88.4238 88.4238 0 197.5 0C306.576 0 395 88.4238 395 197.5ZM23.4926 197.5C23.4926 293.602 101.398 371.507 197.5 371.507C293.602 371.507 371.507 293.602 371.507 197.5C371.507 101.398 293.602 23.4926 197.5 23.4926C101.398 23.4926 23.4926 101.398 23.4926 197.5Z" fill="#2190FF"/>
<path d="M275.946 131.628C320.427 138.421 355.898 151.873 375.299 169.307C394.699 186.741 396.608 206.879 380.643 225.713C364.679 244.546 332.013 260.694 289.146 270.943C246.28 281.193 196.356 284.791 149.311 281.023C102.267 277.254 61.5501 266.395 35.2658 250.607C8.98148 234.819 -0.94345 215.259 7.46631 195.82C15.8761 176.381 42.0039 158.489 80.6496 145.705C119.295 132.921 167.625 126.181 216.021 126.828L212.628 141.446C173.325 140.921 134.075 146.394 102.69 156.777C71.3054 167.159 50.0865 181.689 43.2568 197.476C36.427 213.262 44.4873 229.147 65.8332 241.969C87.1792 254.791 120.246 263.61 158.452 266.67C196.658 269.731 237.202 266.808 272.014 258.485C306.827 250.161 333.356 237.047 346.321 221.752C359.286 206.457 357.736 190.103 341.98 175.944C326.224 161.786 297.418 150.861 261.294 145.345L275.946 131.628Z" fill="#2190FF"/>
<path d="M197.662 394.359C154.762 394.359 119.984 306.233 119.984 197.524C119.984 88.8148 154.762 0.688721 197.662 0.688721C240.562 0.688721 275.34 88.8148 275.34 197.524C275.34 306.233 240.562 394.359 197.662 394.359ZM197.662 37.6399C162.815 37.6399 134.566 109.222 134.566 197.524C134.566 285.825 162.815 357.408 197.662 357.408C232.509 357.408 260.758 285.825 260.758 197.524C260.758 109.222 232.509 37.6399 197.662 37.6399Z" fill="#2190FF"/>
</svg>
