<svg width="800" height="500" viewBox="0 0 816 235" fill="none" xmlns="http://www.w3.org/2000/svg">
<path d="M87.7841 94C87.4053 89.2652 85.6297 85.572 82.4574 82.9205C79.3324 80.2689 74.5739 78.9432 68.1818 78.9432C64.1098 78.9432 60.7718 79.4403 58.1676 80.4347C55.6108 81.3816 53.7169 82.6837 52.4858 84.3409C51.2547 85.9981 50.6155 87.892 50.5682 90.0227C50.4735 91.7746 50.7813 93.3608 51.4915 94.7812C52.2491 96.1544 53.4328 97.4091 55.0426 98.5455C56.6525 99.6345 58.7121 100.629 61.2216 101.528C63.7311 102.428 66.714 103.233 70.1705 103.943L82.1023 106.5C90.1515 108.205 97.0407 110.454 102.77 113.247C108.499 116.041 113.187 119.331 116.832 123.119C120.478 126.86 123.153 131.074 124.858 135.761C126.61 140.449 127.509 145.562 127.557 151.102C127.509 160.667 125.118 168.763 120.384 175.392C115.649 182.021 108.878 187.063 100.071 190.52C91.3116 193.976 80.7765 195.705 68.4659 195.705C55.8239 195.705 44.7917 193.834 35.3693 190.094C25.9943 186.353 18.7027 180.6 13.4943 172.835C8.33333 165.023 5.72917 155.032 5.68182 142.864H43.1818C43.4186 147.314 44.5313 151.055 46.5199 154.085C48.5085 157.116 51.3021 159.412 54.9006 160.974C58.5464 162.537 62.8788 163.318 67.8977 163.318C72.1117 163.318 75.6392 162.797 78.4801 161.756C81.321 160.714 83.4754 159.27 84.9432 157.423C86.411 155.577 87.1686 153.47 87.2159 151.102C87.1686 148.877 86.4347 146.936 85.0142 145.278C83.6411 143.574 81.3684 142.059 78.196 140.733C75.0237 139.36 70.7386 138.081 65.3409 136.898L50.8523 133.773C37.9735 130.979 27.8172 126.315 20.3835 119.781C12.9972 113.2 9.32765 104.227 9.375 92.8636C9.32765 83.6307 11.7898 75.5578 16.7614 68.6449C21.7803 61.6847 28.7169 56.2633 37.571 52.3807C46.4725 48.4981 56.6761 46.5568 68.1818 46.5568C79.9242 46.5568 90.0805 48.5218 98.6506 52.4517C107.221 56.3816 113.826 61.9214 118.466 69.071C123.153 76.1733 125.521 84.483 125.568 94H87.7841ZM174.698 194H132.085L180.096 48.5455H234.073L282.085 194H239.471L207.653 88.6023H206.516L174.698 194ZM166.744 136.614H246.857V166.159H166.744V136.614ZM296.094 194V48.5455H400.923V80.3636H335.582V105.364H395.526V137.182H335.582V162.182H400.639V194H296.094ZM420.508 194V48.5455H522.781V80.3636H459.996V105.364H516.531V137.182H459.996V194H420.508Z" fill="#2190FF"/>
<path d="M816 117.5C816 182.393 763.393 235 698.5 235C633.607 235 581 182.393 581 117.5C581 52.6065 633.607 0 698.5 0C763.393 0 816 52.6065 816 117.5ZM600.975 117.5C600.975 171.362 644.638 215.025 698.5 215.025C752.362 215.025 796.025 171.362 796.025 117.5C796.025 63.6384 752.362 19.975 698.5 19.975C644.638 19.975 600.975 63.6384 600.975 117.5Z" fill="#2190FF"/>
<path d="M741.559 77.7882C768.511 81.4702 790.387 89.2088 802.798 99.4524C815.21 109.696 817.24 121.687 808.482 133.022C799.724 144.356 780.825 154.196 755.574 160.568C730.324 166.939 700.589 169.372 672.331 167.379C644.074 165.385 619.384 159.112 603.211 149.818C587.038 140.523 580.579 128.894 585.128 117.263C589.677 105.632 604.898 94.8577 627.74 87.1013C650.581 79.345 679.354 75.1798 708.289 75.4409L706.105 86.0699C683.812 85.8687 661.644 89.0778 644.046 95.0536C626.448 101.029 614.721 109.33 611.216 118.292C607.711 127.253 612.688 136.212 625.148 143.373C637.608 150.534 656.631 155.367 678.401 156.903C700.172 158.439 723.081 156.564 742.535 151.655C761.989 146.746 776.55 139.165 783.298 130.433C790.046 121.7 788.481 112.462 778.919 104.569C769.356 96.6773 752.503 90.7151 731.737 87.8784L741.559 77.7882Z" fill="#2190FF"/>
<path d="M700 231C673.49 231 652 179.289 652 115.5C652 51.7111 673.49 0 700 0C726.51 0 748 51.7111 748 115.5C748 179.289 726.51 231 700 231ZM700 28.5483C680.043 28.5483 663.864 67.4779 663.864 115.5C663.864 163.522 680.043 202.452 700 202.452C719.957 202.452 736.136 163.522 736.136 115.5C736.136 67.4779 719.957 28.5483 700 28.5483Z" fill="#2190FF"/>
</svg>
