<svg width="800" height="500" viewBox="0 0 549 463" fill="none" xmlns="http://www.w3.org/2000/svg">
<path d="M392 117.5C392 182.393 339.393 235 274.5 235C209.607 235 157 182.393 157 117.5C157 52.6065 209.607 0 274.5 0C339.393 0 392 52.6065 392 117.5ZM176.922 117.5C176.922 171.391 220.609 215.078 274.5 215.078C328.391 215.078 372.078 171.391 372.078 117.5C372.078 63.609 328.391 19.9218 274.5 19.9218C220.609 19.9218 176.922 63.609 176.922 117.5Z" fill="#2190FF"/>
<path d="M317.559 77.7882C344.511 81.4702 366.387 89.2088 378.798 99.4524C391.21 109.696 393.24 121.687 384.482 133.022C375.724 144.356 356.825 154.196 331.574 160.568C306.324 166.939 276.589 169.372 248.331 167.379C220.074 165.385 195.384 159.112 179.211 149.818C163.038 140.523 156.579 128.894 161.128 117.263C165.677 105.632 180.898 94.8577 203.74 87.1013C226.581 79.345 255.354 75.1798 284.289 75.4409L282.105 86.0699C259.812 85.8687 237.644 89.0778 220.046 95.0536C202.448 101.029 190.721 109.33 187.216 118.292C183.711 127.253 188.688 136.212 201.148 143.373C213.608 150.534 232.631 155.367 254.401 156.903C276.172 158.439 299.081 156.564 318.535 151.655C337.989 146.746 352.55 139.165 359.298 130.433C366.046 121.7 364.481 112.462 354.919 104.569C345.356 96.6773 328.503 90.7151 307.737 87.8784L317.559 77.7882Z" fill="#2190FF"/>
<path d="M276 231C249.49 231 228 179.289 228 115.5C228 51.7111 249.49 0 276 0C302.51 0 324 51.7111 324 115.5C324 179.289 302.51 231 276 231ZM276 28.5483C256.043 28.5483 239.864 67.4779 239.864 115.5C239.864 163.522 256.043 202.452 276 202.452C295.957 202.452 312.136 163.522 312.136 115.5C312.136 67.4779 295.957 28.5483 276 28.5483Z" fill="#2190FF"/>
<path d="M87.7841 361C87.4053 356.265 85.6297 352.572 82.4574 349.92C79.3324 347.269 74.5739 345.943 68.1818 345.943C64.1098 345.943 60.7718 346.44 58.1676 347.435C55.6108 348.382 53.7169 349.684 52.4858 351.341C51.2547 352.998 50.6155 354.892 50.5682 357.023C50.4735 358.775 50.7813 360.361 51.4915 361.781C52.2491 363.154 53.4328 364.409 55.0426 365.545C56.6525 366.634 58.7121 367.629 61.2216 368.528C63.7311 369.428 66.714 370.233 70.1705 370.943L82.1023 373.5C90.1515 375.205 97.0407 377.454 102.77 380.247C108.499 383.041 113.187 386.331 116.832 390.119C120.478 393.86 123.153 398.074 124.858 402.761C126.61 407.449 127.509 412.562 127.557 418.102C127.509 427.667 125.118 435.763 120.384 442.392C115.649 449.021 108.878 454.063 100.071 457.52C91.3116 460.976 80.7765 462.705 68.4659 462.705C55.8239 462.705 44.7917 460.834 35.3693 457.094C25.9943 453.353 18.7027 447.6 13.4943 439.835C8.33333 432.023 5.72917 422.032 5.68182 409.864H43.1818C43.4186 414.314 44.5313 418.055 46.5199 421.085C48.5085 424.116 51.3021 426.412 54.9006 427.974C58.5464 429.537 62.8788 430.318 67.8977 430.318C72.1117 430.318 75.6392 429.797 78.4801 428.756C81.321 427.714 83.4754 426.27 84.9432 424.423C86.411 422.577 87.1686 420.47 87.2159 418.102C87.1686 415.877 86.4347 413.936 85.0142 412.278C83.6411 410.574 81.3684 409.059 78.196 407.733C75.0237 406.36 70.7386 405.081 65.3409 403.898L50.8523 400.773C37.9735 397.979 27.8172 393.315 20.3835 386.781C12.9972 380.2 9.32765 371.227 9.375 359.864C9.32765 350.631 11.7898 342.558 16.7614 335.645C21.7803 328.685 28.7169 323.263 37.571 319.381C46.4725 315.498 56.6761 313.557 68.1818 313.557C79.9242 313.557 90.0805 315.522 98.6506 319.452C107.221 323.382 113.826 328.921 118.466 336.071C123.153 343.173 125.521 351.483 125.568 361H87.7841ZM174.698 461H132.085L180.096 315.545H234.073L282.085 461H239.471L207.653 355.602H206.516L174.698 461ZM166.744 403.614H246.857V433.159H166.744V403.614ZM296.094 461V315.545H400.923V347.364H335.582V372.364H395.526V404.182H335.582V429.182H400.639V461H296.094ZM420.508 461V315.545H522.781V347.364H459.996V372.364H516.531V404.182H459.996V461H420.508Z" fill="#2190FF"/>
</svg>
